<svg width="350" height="21" viewBox="0 0 350 21" fill="none" xmlns="http://www.w3.org/2000/svg">
<path d="M19.06 15.904H21.004C21.94 15.904 22.78 15.64 23.5 15.16L23.14 19.336H9.868C3.724 19.336 0.172 15.256 0.172 10.624C0.172 5.992 3.748 1.912 9.868 1.912H23.14L23.5 6.088C22.78 5.632 21.94 5.344 21.004 5.344H19.06C16.156 5.344 13.78 7.72 13.78 10.624C13.78 13.552 16.156 15.904 19.06 15.904ZM46.0984 1.912C52.0504 1.912 55.7944 5.824 55.7944 10.624C55.7944 15.448 52.0504 19.336 46.0984 19.336H34.2664C28.3144 19.336 24.5704 15.448 24.5704 10.624C24.5704 5.824 28.3144 1.912 34.2664 1.912H46.0984ZM44.6344 12.184V9.064C44.6344 6.904 42.9304 5.152 40.8664 5.152H39.4984C37.4104 5.152 35.7304 6.904 35.7304 9.064V12.184C35.7304 14.344 37.4104 16.12 39.4984 16.12H40.8664C42.9304 16.12 44.6344 14.344 44.6344 12.184ZM88.756 2.248C94.684 2.248 98.452 5.824 98.452 10.624C98.452 15.448 94.684 19 88.756 19H83.428V20.392H72.196V19H66.868C60.916 19 57.172 15.448 57.172 10.624C57.172 5.824 60.916 2.248 66.868 2.248H72.196V0.855999H83.428V2.248H88.756ZM72.196 16.12V5.152H71.644C69.028 5.152 66.916 7.264 66.916 9.856V11.392C66.916 14.008 69.028 16.12 71.644 16.12H72.196ZM88.684 11.392V9.856C88.684 7.264 86.572 5.152 83.98 5.152H83.428V16.12H83.98C86.572 16.12 88.684 14.008 88.684 11.392ZM123.876 2.248C127.884 2.248 130.428 4.792 130.428 7.912C130.428 11.056 127.884 13.6 123.876 13.6H112.116V19H100.572V2.248H123.876ZM114.636 11.488C116.604 11.488 118.212 9.88 118.212 7.912C118.212 5.944 116.604 4.36 114.636 4.36H112.116V11.488H114.636ZM150.882 2.248H161.346V19H150.114V10.24L142.914 19H132.354V2.248H143.586V11.128L150.882 2.248ZM181.629 2.248H192.861V19H181.629V9.712H175.437V19H164.205V2.248H175.437V6.496H181.629V2.248ZM216.513 1.912C222.465 1.912 226.209 5.824 226.209 10.624C226.209 15.448 222.465 19.336 216.513 19.336H204.681C198.729 19.336 194.985 15.448 194.985 10.624C194.985 5.824 198.729 1.912 204.681 1.912H216.513ZM215.049 12.184V9.064C215.049 6.904 213.345 5.152 211.281 5.152H209.913C207.825 5.152 206.145 6.904 206.145 9.064V12.184C206.145 14.344 207.825 16.12 209.913 16.12H211.281C213.345 16.12 215.049 14.344 215.049 12.184ZM228.306 8.632L241.242 8.416L240.954 12.832H227.898L228.306 8.632ZM263.482 2.248L264.154 7.144L255.226 6.088V19H243.682V2.248H263.482ZM289.158 2.248C293.166 2.248 295.71 4.792 295.71 7.912C295.71 11.056 293.166 13.6 289.158 13.6H277.398V19H265.854V2.248H289.158ZM279.918 11.488C281.886 11.488 283.494 9.88 283.494 7.912C283.494 5.944 281.886 4.36 279.918 4.36H277.398V11.488H279.918ZM319.059 2.248H323.786L313.683 19H304.611L304.083 16.12L311.283 16.768L313.155 13.264H303.747L295.466 2.248H309.747L314.643 10.48L319.059 2.248ZM345.574 8.68C347.806 9.184 349.462 11.176 349.462 13.552V14.008C349.462 16.768 347.206 19 344.446 19H324.07L324.67 15.088C325.126 15.376 326.494 16.12 329.902 16.12H330.646H332.854C334.27 16.12 335.398 14.968 335.398 13.576V13.024C335.398 11.608 334.27 10.48 332.854 10.48H330.142C329.35 10.48 328.222 10.744 328.222 10.744L328.51 8.536H333.358C334.222 8.536 334.918 7.84 334.918 6.976V6.688C334.918 5.848 334.222 5.152 333.358 5.152H329.398C327.814 5.152 326.206 5.752 326.206 5.752L325.63 2.248H340.87C344.686 2.248 346.63 3.688 346.63 6.112C346.63 7.096 346.246 7.984 345.574 8.68Z" fill="white"/>
</svg>
